<?xml version="1.0" standalone="no"?>
<!DOCTYPE svg PUBLIC "-//W3C//DTD SVG 20010904//EN"
 "http://www.w3.org/TR/2001/REC-SVG-20010904/DTD/svg10.dtd">
<svg version="1.0" xmlns="http://www.w3.org/2000/svg"
 width="1099.000000pt" height="882.000000pt" viewBox="0 0 1099.000000 882.000000"
 preserveAspectRatio="xMidYMid meet">

<g transform="translate(0.000000,882.000000) scale(0.100000,-0.100000)"
fill="#000000" stroke="none">
<path d="M2665 8446 c-37 -17 -80 -62 -94 -99 -8 -20 -11 -553 -11 -1733 l0
-1704 -315 0 c-339 0 -354 -2 -389 -52 -14 -20 -16 -192 -16 -1656 0 -1749 -2
-1674 47 -1698 10 -5 164 -11 343 -14 l325 -5 5 -530 c5 -524 5 -530 27 -565
12 -20 40 -46 61 -58 l40 -22 2813 0 2813 0 43 21 c29 14 52 35 68 63 l25 43
0 526 0 527 326 0 326 0 34 34 34 34 0 1639 c0 1469 -2 1641 -16 1661 -35 50
-50 52 -389 52 l-315 0 0 1125 c0 1093 -1 1127 -19 1163 -29 56 -1207 1228
-1253 1247 -33 13 -284 15 -2260 15 -1835 -1 -2228 -3 -2253 -14z m4327 -623
c4 -274 5 -279 32 -355 92 -256 321 -437 594 -468 48 -5 174 -10 280 -10 l192
0 0 -1040 0 -1040 -2585 0 -2585 0 0 1595 0 1595 2034 0 2035 0 3 -277z
m-2818 -3858 c147 -31 265 -113 325 -224 33 -63 68 -199 54 -211 -4 -4 -74
-11 -155 -15 l-147 -7 -12 46 c-27 110 -102 164 -238 173 -186 13 -317 -72
-281 -182 22 -67 78 -94 335 -162 268 -70 359 -113 443 -208 71 -81 101 -167
102 -292 1 -237 -164 -413 -430 -459 -114 -20 -312 -14 -405 11 -203 56 -346
210 -388 420 -8 39 -13 71 -12 73 5 6 280 32 291 28 6 -2 15 -21 19 -42 11
-60 50 -128 99 -171 139 -122 441 -84 502 64 20 47 17 112 -6 151 -28 45 -91
72 -280 122 -200 52 -241 66 -324 107 -92 46 -168 120 -209 202 -30 61 -32 73
-32 166 0 97 2 104 38 177 59 121 168 200 317 232 87 19 306 20 394 1z m3082
-18 c98 -32 184 -87 242 -152 44 -51 119 -191 124 -234 3 -26 5 -26 -263 -75
-35 -6 -37 -5 -53 37 -70 185 -338 256 -549 145 -154 -82 -227 -254 -213 -503
3 -60 12 -134 20 -164 47 -174 157 -283 317 -317 123 -26 274 5 402 83 l58 35
-3 96 -3 97 -177 3 -178 2 0 125 0 125 335 0 335 0 0 -303 0 -304 -57 -42
c-172 -127 -433 -201 -659 -188 -288 18 -506 153 -618 383 -119 244 -122 563
-5 799 73 149 178 252 324 321 113 52 186 64 375 60 146 -3 174 -6 246 -29z
m-2036 -524 c101 -296 187 -549 192 -563 8 -20 42 73 196 538 l186 562 164 0
c152 0 164 -1 157 -17 -8 -21 -501 -1399 -522 -1460 l-15 -43 -166 0 -167 0
-265 741 c-146 408 -266 750 -268 760 -3 18 6 19 161 19 l164 0 183 -537z
m2870 -2343 l0 -410 -2585 0 -2585 0 0 410 0 410 2585 0 2585 0 0 -410z"/>
<path d="M3768 7104 c-5 -4 -8 -72 -8 -151 l0 -143 1235 0 1235 0 -7 143 c-3
78 -8 144 -10 147 -8 8 -2437 12 -2445 4z"/>
<path d="M3767 6393 c-4 -3 -7 -71 -7 -150 l0 -143 1745 0 1746 0 -3 148 -3
147 -1736 3 c-954 1 -1739 -1 -1742 -5z"/>
<path d="M3762 5533 l3 -148 1740 0 1740 0 3 148 3 147 -1746 0 -1746 0 3
-147z"/>
</g>
</svg>
